<?xml version="1.0" standalone="no"?>
<!DOCTYPE svg PUBLIC "-//W3C//DTD SVG 20010904//EN"
 "http://www.w3.org/TR/2001/REC-SVG-20010904/DTD/svg10.dtd">
<svg version="1.0" xmlns="http://www.w3.org/2000/svg"
 width="435.000000pt" height="448.000000pt" viewBox="0 0 435.000000 448.000000"
 preserveAspectRatio="xMidYMid meet">

<g transform="translate(0.000000,448.000000) scale(0.100000,-0.100000)"
fill="#000000" stroke="none">
<path d="M1642 4410 c-44 -10 -80 -45 -92 -89 -5 -20 -10 -137 -10 -261 l0
-225 -98 -45 c-104 -48 -235 -127 -319 -192 l-53 -40 -215 121 c-119 67 -230
124 -246 128 -40 8 -99 -20 -126 -60 -12 -18 -119 -205 -239 -417 -226 -402
-241 -436 -214 -499 15 -37 29 -46 265 -180 l190 -107 -5 -49 c-3 -28 -5 -149
-5 -270 l0 -220 -203 -125 c-111 -69 -212 -135 -223 -147 -31 -32 -35 -91 -10
-141 56 -109 485 -791 517 -821 60 -56 93 -47 314 91 l185 115 45 -37 c81 -67
223 -154 342 -210 l118 -55 0 -255 0 -255 25 -27 c14 -15 38 -31 53 -35 15 -5
243 -8 507 -8 519 0 526 1 562 54 16 23 18 52 18 277 l0 251 104 49 c126 58
212 109 312 184 l76 57 204 -118 c112 -65 219 -121 237 -125 42 -8 87 11 116
50 13 17 126 211 252 431 209 365 229 404 229 447 0 34 -6 53 -22 70 -12 13
-117 77 -232 143 l-210 120 7 30 c9 39 9 451 0 491 l-7 30 207 120 c114 65
220 131 236 147 26 25 28 33 24 80 -5 46 -31 97 -222 427 -262 451 -269 463
-301 480 -53 28 -84 17 -307 -112 l-215 -125 -29 25 c-68 57 -241 163 -348
213 l-116 54 0 230 c0 253 -5 276 -63 319 -28 20 -40 21 -505 23 -262 1 -492
-2 -510 -7z m656 -1505 c175 -41 346 -177 426 -338 50 -102 67 -175 67 -292 0
-188 -56 -321 -191 -455 -135 -135 -267 -190 -460 -190 -193 0 -325 55 -460
190 -135 134 -190 266 -190 453 0 117 17 194 68 297 73 150 254 294 419 334
77 19 242 19 321 1z"/>
</g>
</svg>
